<svg xmlns="http://www.w3.org/2000/svg" width="320" height="240" viewBox="0 0 320 240">
<rect width="320" height="240" fill="#05070a"/>
<style>
text{font-family:-apple-system,BlinkMacSystemFont,"Segoe UI",sans-serif}
.title{font-family:-apple-system,BlinkMacSystemFont,"Segoe UI",sans-serif;font-weight:650}
.mono{font-family:"SF Mono","Menlo",monospace}
</style>

<text x="160" y="31.72" font-size="34" fill="#f6f8fa" dominant-baseline="middle" text-anchor="middle" class="title">Used</text>
<rect x="16" y="60" width="288" height="72" rx="8" fill="#15191d"/>
<text x="26" y="78.48" font-size="24" fill="#f6f8fa" dominant-baseline="middle" text-anchor="start" font-weight="700">37%</text>
<rect x="260" y="67" width="34" height="26" rx="14" fill="#263039"/>
<text x="277" y="80" font-size="14" fill="#f6f8fa" dominant-baseline="middle" text-anchor="middle">5h</text>
<rect x="26" y="94" width="268" height="12" rx="6" fill="#263039"/>
<rect x="26" y="94" width="99" height="12" rx="6" fill="#18a085"/>
<text x="26" y="114.6" font-size="12" fill="#98a2ad" dominant-baseline="middle" text-anchor="start">Resets in 2h 15m</text>
<rect x="16" y="140" width="288" height="72" rx="8" fill="#15191d"/>
<text x="26" y="158.48" font-size="24" fill="#f6f8fa" dominant-baseline="middle" text-anchor="start" font-weight="700">12%</text>
<rect x="232" y="147" width="62" height="26" rx="14" fill="#263039"/>
<text x="263" y="160" font-size="14" fill="#f6f8fa" dominant-baseline="middle" text-anchor="middle">Weekly</text>
<rect x="26" y="174" width="268" height="12" rx="6" fill="#263039"/>
<rect x="26" y="174" width="32" height="12" rx="6" fill="#18a085"/>
<text x="26" y="194.6" font-size="12" fill="#98a2ad" dominant-baseline="middle" text-anchor="start">Resets in 6d 23h</text>
<text x="160" y="228.9" font-size="18" fill="#18a085" dominant-baseline="middle" text-anchor="middle" class="mono">. Syncing...</text>
<rect x="260" y="7" width="54" height="28" rx="14" fill="#263039"/>
<text x="287" y="21" font-size="12" fill="#18a085" dominant-baseline="middle" text-anchor="middle" font-weight="700">SET</text>
</svg>