<svg xmlns="http://www.w3.org/2000/svg" width="320" height="240" viewBox="0 0 320 240">
<rect width="320" height="240" fill="#000000"/>
<style>
text{font-family:-apple-system,BlinkMacSystemFont,"Segoe UI",sans-serif}
.title{font-family:Georgia,"Times New Roman",serif}
.mono{font-family:"SF Mono","Menlo",monospace}
</style>
<text x="160" y="31.72" font-size="34" fill="#faf9f5" dominant-baseline="middle" text-anchor="middle" class="title">Settings</text>
<rect x="6" y="7" width="58" height="28" rx="14" fill="#2a2a28"/>
<text x="35" y="21" font-size="12" fill="#d97757" dominant-baseline="middle" text-anchor="middle" font-weight="700">BACK</text>
<rect x="16" y="52" width="288" height="28" rx="8" fill="#1f1f1e"/>
<text x="26" y="66" font-size="12" fill="#b0aea5" dominant-baseline="middle" text-anchor="start">Display</text>
<text x="294" y="66" font-size="14" fill="#faf9f5" dominant-baseline="middle" text-anchor="end" font-weight="600">Used</text>
<rect x="16" y="83" width="288" height="28" rx="8" fill="#1f1f1e"/>
<text x="26" y="97" font-size="12" fill="#b0aea5" dominant-baseline="middle" text-anchor="start">Theme</text>
<text x="294" y="97" font-size="14" fill="#faf9f5" dominant-baseline="middle" text-anchor="end" font-weight="600">Dark</text>
<rect x="16" y="114" width="288" height="28" rx="8" fill="#1f1f1e"/>
<text x="26" y="128" font-size="12" fill="#b0aea5" dominant-baseline="middle" text-anchor="start">Accent</text>
<text x="294" y="128" font-size="14" fill="#faf9f5" dominant-baseline="middle" text-anchor="end" font-weight="600">Claude</text>
<rect x="16" y="145" width="288" height="28" rx="8" fill="#1f1f1e"/>
<text x="26" y="159" font-size="12" fill="#b0aea5" dominant-baseline="middle" text-anchor="start">Night</text>
<text x="294" y="159" font-size="14" fill="#faf9f5" dominant-baseline="middle" text-anchor="end" font-weight="600">Off</text>
<rect x="16" y="176" width="288" height="28" rx="8" fill="#1f1f1e"/>
<text x="26" y="190" font-size="12" fill="#b0aea5" dominant-baseline="middle" text-anchor="start">Start</text>
<text x="294" y="190" font-size="14" fill="#faf9f5" dominant-baseline="middle" text-anchor="end" font-weight="600">23:00</text>
<rect x="16" y="207" width="288" height="28" rx="8" fill="#1f1f1e"/>
<text x="26" y="221" font-size="12" fill="#b0aea5" dominant-baseline="middle" text-anchor="start">End</text>
<text x="294" y="221" font-size="14" fill="#faf9f5" dominant-baseline="middle" text-anchor="end" font-weight="600">07:00</text>
</svg>
