<svg xmlns="http://www.w3.org/2000/svg" viewBox="0 0 64 64">
  <rect width="64" height="64" rx="14" fill="#f5f0e8"/>
  <g fill="none" stroke="#cc785c" stroke-width="4.8" stroke-linecap="round" stroke-linejoin="round">
    <path d="M32 8.5c7.7 0 14 6.3 14 14V32"/>
    <path d="M32 8.5c7.7 0 14 6.3 14 14V32" transform="rotate(60 32 32)"/>
    <path d="M32 8.5c7.7 0 14 6.3 14 14V32" transform="rotate(120 32 32)"/>
    <path d="M32 8.5c7.7 0 14 6.3 14 14V32" transform="rotate(180 32 32)"/>
    <path d="M32 8.5c7.7 0 14 6.3 14 14V32" transform="rotate(240 32 32)"/>
    <path d="M32 8.5c7.7 0 14 6.3 14 14V32" transform="rotate(300 32 32)"/>
  </g>
  <circle cx="32" cy="32" r="4" fill="#cc785c"/>
</svg>
