<svg xmlns="http://www.w3.org/2000/svg" width="320" height="240" viewBox="0 0 320 240">
<rect width="320" height="240" fill="#05070a"/>
<style>
text{font-family:-apple-system,BlinkMacSystemFont,"Segoe UI",sans-serif}
.title{font-family:-apple-system,BlinkMacSystemFont,"Segoe UI",sans-serif;font-weight:650}
.mono{font-family:"SF Mono","Menlo",monospace}
</style>

<text x="160" y="31.72" font-size="34" fill="#f6f8fa" dominant-baseline="middle" text-anchor="middle" class="title">Bluetooth</text>
<rect x="16" y="60" width="288" height="92" rx="8" fill="#15191d"/>
<g transform="translate(26 66) scale(1.5)" fill="none" stroke="#98a2ad" stroke-width="2" stroke-linecap="round" stroke-linejoin="round"><path d="m7 7 10 10-5 5V2l5 5L7 17"/></g>
<text x="74" y="84" font-size="20" fill="#18a085" dominant-baseline="middle" text-anchor="start" font-weight="700">Connected</text>
<text x="26" y="112" font-size="14" fill="#98a2ad" dominant-baseline="middle" text-anchor="start">Device: CYD Usage Meter</text>
<text x="26" y="132" font-size="14" fill="#98a2ad" dominant-baseline="middle" text-anchor="start">Address: F0:08:D1:2A:BC:34</text>
<rect x="16" y="168" width="288" height="44" rx="8" fill="#15191d"/>
<g transform="translate(92 180) scale(0.8333333333333334)" fill="none" stroke="#98a2ad" stroke-width="2" stroke-linecap="round" stroke-linejoin="round"><path d="M10 11v6"/><path d="M14 11v6"/><path d="M19 6v14a2 2 0 0 1-2 2H7a2 2 0 0 1-2-2V6"/><path d="M3 6h18"/><path d="M8 6V4a2 2 0 0 1 2-2h4a2 2 0 0 1 2 2v2"/></g>
<text x="124" y="190" font-size="14" fill="#98a2ad" dominant-baseline="middle" text-anchor="start">Reset Bluetooth</text>


<rect x="260" y="7" width="54" height="28" rx="14" fill="#263039"/>
<text x="287" y="21" font-size="12" fill="#18a085" dominant-baseline="middle" text-anchor="middle" font-weight="700">SET</text>
</svg>