<svg xmlns="http://www.w3.org/2000/svg" width="240" height="320" viewBox="0 0 240 320">
<rect width="240" height="320" fill="#05070a"/>
<style>
text{font-family:-apple-system,BlinkMacSystemFont,"Segoe UI",sans-serif}
.title{font-family:-apple-system,BlinkMacSystemFont,"Segoe UI",sans-serif;font-weight:650}
.mono{font-family:"SF Mono","Menlo",monospace}
</style>

<text x="110" y="33.92" font-size="24" fill="#f6f8fa" dominant-baseline="middle" text-anchor="middle" class="title">Bluetooth</text>
<rect x="20" y="70" width="200" height="108" rx="8" fill="#15191d"/>
<g transform="translate(30 78) scale(1.5)" fill="none" stroke="#98a2ad" stroke-width="2" stroke-linecap="round" stroke-linejoin="round"><path d="m7 7 10 10-5 5V2l5 5L7 17"/></g>
<text x="78" y="96" font-size="20" fill="#18a085" dominant-baseline="middle" text-anchor="start" font-weight="700">Connected</text>
<text x="30" y="128" font-size="14" fill="#98a2ad" dominant-baseline="middle" text-anchor="start">Device: CodeMeter</text>
<text x="30" y="152" font-size="14" fill="#98a2ad" dominant-baseline="middle" text-anchor="start">Address: F0:08:D1:2A:BC:34</text>
<rect x="20" y="194" width="200" height="60" rx="8" fill="#15191d"/>
<g transform="translate(52 214) scale(0.8333333333333334)" fill="none" stroke="#98a2ad" stroke-width="2" stroke-linecap="round" stroke-linejoin="round"><path d="M10 11v6"/><path d="M14 11v6"/><path d="M19 6v14a2 2 0 0 1-2 2H7a2 2 0 0 1-2-2V6"/><path d="M3 6h18"/><path d="M8 6V4a2 2 0 0 1 2-2h4a2 2 0 0 1 2 2v2"/></g>
<text x="84" y="224" font-size="14" fill="#98a2ad" dominant-baseline="middle" text-anchor="start">Reset Bluetooth</text>
<text x="120" y="274" font-size="14" fill="#98a2ad" dominant-baseline="middle" text-anchor="middle">CodeMeter</text>
<text x="120" y="300" font-size="14" fill="#98a2ad" dominant-baseline="middle" text-anchor="middle">Community firmware</text>
<rect x="180" y="7" width="54" height="28" rx="14" fill="#263039"/>
<text x="207" y="21" font-size="14" fill="#d9825b" dominant-baseline="middle" text-anchor="middle" font-weight="700">SET</text>
</svg>