<svg xmlns="http://www.w3.org/2000/svg" width="240" height="320" viewBox="0 0 240 320">
<rect width="240" height="320" fill="#05070a"/>
<style>
text{font-family:-apple-system,BlinkMacSystemFont,"Segoe UI",sans-serif}
.title{font-family:-apple-system,BlinkMacSystemFont,"Segoe UI",sans-serif;font-weight:650}
.mono{font-family:"SF Mono","Menlo",monospace}
</style>

<text x="120" y="37.72" font-size="34" fill="#f6f8fa" dominant-baseline="middle" text-anchor="middle" class="title">Used</text>
<rect x="20" y="70" width="200" height="86" rx="8" fill="#15191d"/>
<text x="30" y="92.56" font-size="28" fill="#f6f8fa" dominant-baseline="middle" text-anchor="start" font-weight="700">37%</text>
<rect x="176" y="79" width="34" height="28" rx="14" fill="#263039"/>
<text x="193" y="93" font-size="16" fill="#f6f8fa" dominant-baseline="middle" text-anchor="middle">5h</text>
<rect x="30" y="112" width="180" height="16" rx="6" fill="#263039"/>
<rect x="30" y="112" width="67" height="16" rx="6" fill="#18a085"/>
<text x="30" y="135.7" font-size="14" fill="#98a2ad" dominant-baseline="middle" text-anchor="start">Resets in 2h 15m</text>
<rect x="20" y="164" width="200" height="86" rx="8" fill="#15191d"/>
<text x="30" y="186.56" font-size="28" fill="#f6f8fa" dominant-baseline="middle" text-anchor="start" font-weight="700">12%</text>
<rect x="148" y="173" width="62" height="28" rx="14" fill="#263039"/>
<text x="179" y="187" font-size="16" fill="#f6f8fa" dominant-baseline="middle" text-anchor="middle">Weekly</text>
<rect x="30" y="206" width="180" height="16" rx="6" fill="#263039"/>
<rect x="30" y="206" width="22" height="16" rx="6" fill="#18a085"/>
<text x="30" y="229.7" font-size="14" fill="#98a2ad" dominant-baseline="middle" text-anchor="start">Resets in 6d 23h</text>
<text x="120" y="303.9" font-size="18" fill="#18a085" dominant-baseline="middle" text-anchor="middle" class="mono">. Syncing...</text>
<rect x="180" y="7" width="54" height="28" rx="14" fill="#263039"/>
<text x="207" y="21" font-size="14" fill="#18a085" dominant-baseline="middle" text-anchor="middle" font-weight="700">SET</text>
</svg>