<svg xmlns="http://www.w3.org/2000/svg" width="1064" height="1106" viewBox="0 0 1064 1106">
<rect width="1064" height="1106" fill="#111110"/>
<style>text{font-family:-apple-system,BlinkMacSystemFont,"Segoe UI",sans-serif}</style>
<text x="188" y="40" font-size="14" fill="#98a2ad" dominant-baseline="middle" text-anchor="middle">portrait splash</text>
<svg x="68" y="50" xmlns="http://www.w3.org/2000/svg" width="240" height="320" viewBox="0 0 240 320">
<rect width="240" height="320" fill="#05070a"/>
<style>
text{font-family:-apple-system,BlinkMacSystemFont,"Segoe UI",sans-serif}
.title{font-family:-apple-system,BlinkMacSystemFont,"Segoe UI",sans-serif;font-weight:650}
.mono{font-family:"SF Mono","Menlo",monospace}
</style>
<text x="120" y="48.239999999999995" font-size="28" fill="#f6f8fa" dominant-baseline="middle" text-anchor="middle" class="title">Usage Meter</text>
<rect x="28" y="87" width="184" height="147" rx="8" fill="#15191d"/>
<rect x="41" y="173" width="25" height="29" rx="4" fill="#18a085"/>
<rect x="74" y="141" width="25" height="61" rx="4" fill="#18a085"/>
<rect x="107" y="158" width="25" height="44" rx="4" fill="#18a085"/>
<rect x="140" y="127" width="25" height="75" rx="4" fill="#18a085"/>
<rect x="173" y="165" width="25" height="37" rx="4" fill="#18a085"/>
<text x="120" y="294" font-size="14" fill="#98a2ad" dominant-baseline="middle" text-anchor="middle">BLE display</text>
</svg>
<rect x="67" y="49" width="242" height="322" rx="10" fill="none" stroke="#383631"/>
<text x="532" y="40" font-size="14" fill="#98a2ad" dominant-baseline="middle" text-anchor="middle">portrait usage</text>
<svg x="412" y="50" xmlns="http://www.w3.org/2000/svg" width="240" height="320" viewBox="0 0 240 320">
<rect width="240" height="320" fill="#05070a"/>
<style>
text{font-family:-apple-system,BlinkMacSystemFont,"Segoe UI",sans-serif}
.title{font-family:-apple-system,BlinkMacSystemFont,"Segoe UI",sans-serif;font-weight:650}
.mono{font-family:"SF Mono","Menlo",monospace}
</style>

<text x="120" y="37.72" font-size="34" fill="#f6f8fa" dominant-baseline="middle" text-anchor="middle" class="title">Used</text>
<rect x="20" y="70" width="200" height="86" rx="8" fill="#15191d"/>
<text x="30" y="92.56" font-size="28" fill="#f6f8fa" dominant-baseline="middle" text-anchor="start" font-weight="700">37%</text>
<rect x="176" y="79" width="34" height="28" rx="14" fill="#263039"/>
<text x="193" y="93" font-size="16" fill="#f6f8fa" dominant-baseline="middle" text-anchor="middle">5h</text>
<rect x="30" y="112" width="180" height="16" rx="6" fill="#263039"/>
<rect x="30" y="112" width="67" height="16" rx="6" fill="#18a085"/>
<text x="30" y="135.7" font-size="14" fill="#98a2ad" dominant-baseline="middle" text-anchor="start">Resets in 2h 15m</text>
<rect x="20" y="164" width="200" height="86" rx="8" fill="#15191d"/>
<text x="30" y="186.56" font-size="28" fill="#f6f8fa" dominant-baseline="middle" text-anchor="start" font-weight="700">12%</text>
<rect x="148" y="173" width="62" height="28" rx="14" fill="#263039"/>
<text x="179" y="187" font-size="16" fill="#f6f8fa" dominant-baseline="middle" text-anchor="middle">Weekly</text>
<rect x="30" y="206" width="180" height="16" rx="6" fill="#263039"/>
<rect x="30" y="206" width="22" height="16" rx="6" fill="#18a085"/>
<text x="30" y="229.7" font-size="14" fill="#98a2ad" dominant-baseline="middle" text-anchor="start">Resets in 6d 23h</text>
<text x="120" y="303.9" font-size="18" fill="#18a085" dominant-baseline="middle" text-anchor="middle" class="mono">. Syncing...</text>
<rect x="180" y="7" width="54" height="28" rx="14" fill="#263039"/>
<text x="207" y="21" font-size="14" fill="#18a085" dominant-baseline="middle" text-anchor="middle" font-weight="700">SET</text>
</svg>
<rect x="411" y="49" width="242" height="322" rx="10" fill="none" stroke="#383631"/>
<text x="876" y="40" font-size="14" fill="#98a2ad" dominant-baseline="middle" text-anchor="middle">portrait settings</text>
<svg x="756" y="50" xmlns="http://www.w3.org/2000/svg" width="240" height="320" viewBox="0 0 240 320">
<rect width="240" height="320" fill="#05070a"/>
<style>
text{font-family:-apple-system,BlinkMacSystemFont,"Segoe UI",sans-serif}
.title{font-family:-apple-system,BlinkMacSystemFont,"Segoe UI",sans-serif;font-weight:650}
.mono{font-family:"SF Mono","Menlo",monospace}
</style>
<text x="138" y="33.92" font-size="24" fill="#f6f8fa" dominant-baseline="middle" text-anchor="middle" class="title">Settings</text>
<rect x="6" y="7" width="58" height="28" rx="14" fill="#263039"/>
<text x="35" y="21" font-size="14" fill="#18a085" dominant-baseline="middle" text-anchor="middle" font-weight="700">BACK</text>
<rect x="20" y="70" width="200" height="48" rx="8" fill="#15191d"/>
<text x="30" y="94" font-size="14" fill="#98a2ad" dominant-baseline="middle" text-anchor="start">Display</text>
<text x="210" y="94" font-size="16" fill="#f6f8fa" dominant-baseline="middle" text-anchor="end" font-weight="600">Used</text>
<rect x="20" y="126" width="200" height="48" rx="8" fill="#15191d"/>
<text x="30" y="150" font-size="14" fill="#98a2ad" dominant-baseline="middle" text-anchor="start">Theme</text>
<text x="210" y="150" font-size="16" fill="#f6f8fa" dominant-baseline="middle" text-anchor="end" font-weight="600">Dark</text>
<rect x="20" y="182" width="200" height="48" rx="8" fill="#15191d"/>
<text x="30" y="206" font-size="14" fill="#98a2ad" dominant-baseline="middle" text-anchor="start">Accent</text>
<text x="210" y="206" font-size="16" fill="#f6f8fa" dominant-baseline="middle" text-anchor="end" font-weight="600">Green</text>
<rect x="20" y="238" width="200" height="48" rx="8" fill="#15191d"/>
<text x="30" y="262" font-size="14" fill="#98a2ad" dominant-baseline="middle" text-anchor="start">Bluetooth</text>
<text x="210" y="262" font-size="16" fill="#f6f8fa" dominant-baseline="middle" text-anchor="end" font-weight="600">Open</text>
<text x="120" y="304.3" font-size="14" fill="#98a2ad" dominant-baseline="middle" text-anchor="middle">BACK exits</text>
</svg>
<rect x="755" y="49" width="242" height="322" rx="10" fill="none" stroke="#383631"/>
<text x="188" y="406" font-size="14" fill="#98a2ad" dominant-baseline="middle" text-anchor="middle">portrait bluetooth</text>
<svg x="68" y="416" xmlns="http://www.w3.org/2000/svg" width="240" height="320" viewBox="0 0 240 320">
<rect width="240" height="320" fill="#05070a"/>
<style>
text{font-family:-apple-system,BlinkMacSystemFont,"Segoe UI",sans-serif}
.title{font-family:-apple-system,BlinkMacSystemFont,"Segoe UI",sans-serif;font-weight:650}
.mono{font-family:"SF Mono","Menlo",monospace}
</style>

<text x="110" y="33.92" font-size="24" fill="#f6f8fa" dominant-baseline="middle" text-anchor="middle" class="title">Bluetooth</text>
<rect x="20" y="70" width="200" height="108" rx="8" fill="#15191d"/>
<g transform="translate(30 78) scale(1.5)" fill="none" stroke="#98a2ad" stroke-width="2" stroke-linecap="round" stroke-linejoin="round"><path d="m7 7 10 10-5 5V2l5 5L7 17"/></g>
<text x="78" y="96" font-size="20" fill="#18a085" dominant-baseline="middle" text-anchor="start" font-weight="700">Connected</text>
<text x="30" y="128" font-size="14" fill="#98a2ad" dominant-baseline="middle" text-anchor="start">Device: CYD Usage Meter</text>
<text x="30" y="152" font-size="14" fill="#98a2ad" dominant-baseline="middle" text-anchor="start">Address: F0:08:D1:2A:BC:34</text>
<rect x="20" y="194" width="200" height="60" rx="8" fill="#15191d"/>
<g transform="translate(52 214) scale(0.8333333333333334)" fill="none" stroke="#98a2ad" stroke-width="2" stroke-linecap="round" stroke-linejoin="round"><path d="M10 11v6"/><path d="M14 11v6"/><path d="M19 6v14a2 2 0 0 1-2 2H7a2 2 0 0 1-2-2V6"/><path d="M3 6h18"/><path d="M8 6V4a2 2 0 0 1 2-2h4a2 2 0 0 1 2 2v2"/></g>
<text x="84" y="224" font-size="14" fill="#98a2ad" dominant-baseline="middle" text-anchor="start">Reset Bluetooth</text>
<text x="120" y="274" font-size="14" fill="#98a2ad" dominant-baseline="middle" text-anchor="middle">CYD Usage Meter</text>
<text x="120" y="300" font-size="14" fill="#98a2ad" dominant-baseline="middle" text-anchor="middle">Community firmware</text>
<rect x="180" y="7" width="54" height="28" rx="14" fill="#263039"/>
<text x="207" y="21" font-size="14" fill="#18a085" dominant-baseline="middle" text-anchor="middle" font-weight="700">SET</text>
</svg>
<rect x="67" y="415" width="242" height="322" rx="10" fill="none" stroke="#383631"/>
<text x="532" y="406" font-size="14" fill="#98a2ad" dominant-baseline="middle" text-anchor="middle">landscape splash</text>
<svg x="372" y="416" xmlns="http://www.w3.org/2000/svg" width="320" height="240" viewBox="0 0 320 240">
<rect width="320" height="240" fill="#05070a"/>
<style>
text{font-family:-apple-system,BlinkMacSystemFont,"Segoe UI",sans-serif}
.title{font-family:-apple-system,BlinkMacSystemFont,"Segoe UI",sans-serif;font-weight:650}
.mono{font-family:"SF Mono","Menlo",monospace}
</style>
<text x="160" y="31.919999999999998" font-size="24" fill="#f6f8fa" dominant-baseline="middle" text-anchor="middle" class="title">Usage Meter</text>
<rect x="68" y="47" width="184" height="147" rx="8" fill="#15191d"/>
<rect x="81" y="133" width="25" height="29" rx="4" fill="#18a085"/>
<rect x="114" y="101" width="25" height="61" rx="4" fill="#18a085"/>
<rect x="147" y="118" width="25" height="44" rx="4" fill="#18a085"/>
<rect x="180" y="87" width="25" height="75" rx="4" fill="#18a085"/>
<rect x="213" y="125" width="25" height="37" rx="4" fill="#18a085"/>
<text x="160" y="226" font-size="12" fill="#98a2ad" dominant-baseline="middle" text-anchor="middle">BLE display</text>
</svg>
<rect x="371" y="415" width="322" height="242" rx="10" fill="none" stroke="#383631"/>
<text x="876" y="406" font-size="14" fill="#98a2ad" dominant-baseline="middle" text-anchor="middle">landscape usage</text>
<svg x="716" y="416" xmlns="http://www.w3.org/2000/svg" width="320" height="240" viewBox="0 0 320 240">
<rect width="320" height="240" fill="#05070a"/>
<style>
text{font-family:-apple-system,BlinkMacSystemFont,"Segoe UI",sans-serif}
.title{font-family:-apple-system,BlinkMacSystemFont,"Segoe UI",sans-serif;font-weight:650}
.mono{font-family:"SF Mono","Menlo",monospace}
</style>

<text x="160" y="31.72" font-size="34" fill="#f6f8fa" dominant-baseline="middle" text-anchor="middle" class="title">Used</text>
<rect x="16" y="60" width="288" height="72" rx="8" fill="#15191d"/>
<text x="26" y="78.48" font-size="24" fill="#f6f8fa" dominant-baseline="middle" text-anchor="start" font-weight="700">37%</text>
<rect x="260" y="67" width="34" height="26" rx="14" fill="#263039"/>
<text x="277" y="80" font-size="14" fill="#f6f8fa" dominant-baseline="middle" text-anchor="middle">5h</text>
<rect x="26" y="94" width="268" height="12" rx="6" fill="#263039"/>
<rect x="26" y="94" width="99" height="12" rx="6" fill="#18a085"/>
<text x="26" y="114.6" font-size="12" fill="#98a2ad" dominant-baseline="middle" text-anchor="start">Resets in 2h 15m</text>
<rect x="16" y="140" width="288" height="72" rx="8" fill="#15191d"/>
<text x="26" y="158.48" font-size="24" fill="#f6f8fa" dominant-baseline="middle" text-anchor="start" font-weight="700">12%</text>
<rect x="232" y="147" width="62" height="26" rx="14" fill="#263039"/>
<text x="263" y="160" font-size="14" fill="#f6f8fa" dominant-baseline="middle" text-anchor="middle">Weekly</text>
<rect x="26" y="174" width="268" height="12" rx="6" fill="#263039"/>
<rect x="26" y="174" width="32" height="12" rx="6" fill="#18a085"/>
<text x="26" y="194.6" font-size="12" fill="#98a2ad" dominant-baseline="middle" text-anchor="start">Resets in 6d 23h</text>
<text x="160" y="228.9" font-size="18" fill="#18a085" dominant-baseline="middle" text-anchor="middle" class="mono">. Syncing...</text>
<rect x="260" y="7" width="54" height="28" rx="14" fill="#263039"/>
<text x="287" y="21" font-size="12" fill="#18a085" dominant-baseline="middle" text-anchor="middle" font-weight="700">SET</text>
</svg>
<rect x="715" y="415" width="322" height="242" rx="10" fill="none" stroke="#383631"/>
<text x="188" y="772" font-size="14" fill="#98a2ad" dominant-baseline="middle" text-anchor="middle">landscape settings</text>
<svg x="28" y="782" xmlns="http://www.w3.org/2000/svg" width="320" height="240" viewBox="0 0 320 240">
<rect width="320" height="240" fill="#05070a"/>
<style>
text{font-family:-apple-system,BlinkMacSystemFont,"Segoe UI",sans-serif}
.title{font-family:-apple-system,BlinkMacSystemFont,"Segoe UI",sans-serif;font-weight:650}
.mono{font-family:"SF Mono","Menlo",monospace}
</style>
<text x="160" y="31.72" font-size="34" fill="#f6f8fa" dominant-baseline="middle" text-anchor="middle" class="title">Settings</text>
<rect x="6" y="7" width="58" height="28" rx="14" fill="#263039"/>
<text x="35" y="21" font-size="12" fill="#18a085" dominant-baseline="middle" text-anchor="middle" font-weight="700">BACK</text>
<rect x="16" y="60" width="288" height="36" rx="8" fill="#15191d"/>
<text x="26" y="78" font-size="12" fill="#98a2ad" dominant-baseline="middle" text-anchor="start">Display</text>
<text x="294" y="78" font-size="14" fill="#f6f8fa" dominant-baseline="middle" text-anchor="end" font-weight="600">Used</text>
<rect x="16" y="102" width="288" height="36" rx="8" fill="#15191d"/>
<text x="26" y="120" font-size="12" fill="#98a2ad" dominant-baseline="middle" text-anchor="start">Theme</text>
<text x="294" y="120" font-size="14" fill="#f6f8fa" dominant-baseline="middle" text-anchor="end" font-weight="600">Dark</text>
<rect x="16" y="144" width="288" height="36" rx="8" fill="#15191d"/>
<text x="26" y="162" font-size="12" fill="#98a2ad" dominant-baseline="middle" text-anchor="start">Accent</text>
<text x="294" y="162" font-size="14" fill="#f6f8fa" dominant-baseline="middle" text-anchor="end" font-weight="600">Green</text>
<rect x="16" y="186" width="288" height="36" rx="8" fill="#15191d"/>
<text x="26" y="204" font-size="12" fill="#98a2ad" dominant-baseline="middle" text-anchor="start">Bluetooth</text>
<text x="294" y="204" font-size="14" fill="#f6f8fa" dominant-baseline="middle" text-anchor="end" font-weight="600">Open</text>
<text x="160" y="230.4" font-size="12" fill="#98a2ad" dominant-baseline="middle" text-anchor="middle">BACK exits</text>
</svg>
<rect x="27" y="781" width="322" height="242" rx="10" fill="none" stroke="#383631"/>
<text x="532" y="772" font-size="14" fill="#98a2ad" dominant-baseline="middle" text-anchor="middle">landscape bluetooth</text>
<svg x="372" y="782" xmlns="http://www.w3.org/2000/svg" width="320" height="240" viewBox="0 0 320 240">
<rect width="320" height="240" fill="#05070a"/>
<style>
text{font-family:-apple-system,BlinkMacSystemFont,"Segoe UI",sans-serif}
.title{font-family:-apple-system,BlinkMacSystemFont,"Segoe UI",sans-serif;font-weight:650}
.mono{font-family:"SF Mono","Menlo",monospace}
</style>

<text x="160" y="31.72" font-size="34" fill="#f6f8fa" dominant-baseline="middle" text-anchor="middle" class="title">Bluetooth</text>
<rect x="16" y="60" width="288" height="92" rx="8" fill="#15191d"/>
<g transform="translate(26 66) scale(1.5)" fill="none" stroke="#98a2ad" stroke-width="2" stroke-linecap="round" stroke-linejoin="round"><path d="m7 7 10 10-5 5V2l5 5L7 17"/></g>
<text x="74" y="84" font-size="20" fill="#18a085" dominant-baseline="middle" text-anchor="start" font-weight="700">Connected</text>
<text x="26" y="112" font-size="14" fill="#98a2ad" dominant-baseline="middle" text-anchor="start">Device: CYD Usage Meter</text>
<text x="26" y="132" font-size="14" fill="#98a2ad" dominant-baseline="middle" text-anchor="start">Address: F0:08:D1:2A:BC:34</text>
<rect x="16" y="168" width="288" height="44" rx="8" fill="#15191d"/>
<g transform="translate(92 180) scale(0.8333333333333334)" fill="none" stroke="#98a2ad" stroke-width="2" stroke-linecap="round" stroke-linejoin="round"><path d="M10 11v6"/><path d="M14 11v6"/><path d="M19 6v14a2 2 0 0 1-2 2H7a2 2 0 0 1-2-2V6"/><path d="M3 6h18"/><path d="M8 6V4a2 2 0 0 1 2-2h4a2 2 0 0 1 2 2v2"/></g>
<text x="124" y="190" font-size="14" fill="#98a2ad" dominant-baseline="middle" text-anchor="start">Reset Bluetooth</text>


<rect x="260" y="7" width="54" height="28" rx="14" fill="#263039"/>
<text x="287" y="21" font-size="12" fill="#18a085" dominant-baseline="middle" text-anchor="middle" font-weight="700">SET</text>
</svg>
<rect x="371" y="781" width="322" height="242" rx="10" fill="none" stroke="#383631"/>
</svg>